<svg width="71" height="71" viewBox="0 0 71 71" fill="none" xmlns="http://www.w3.org/2000/svg">
<path fill-rule="evenodd" clip-rule="evenodd" d="M70 35.5C70 54.5538 54.5538 70 35.5 70C16.4462 70 1 54.5538 1 35.5C1 16.4462 16.4462 1 35.5 1C54.5538 1 70 16.4462 70 35.5ZM64.3699 54.2668C58.228 63.6958 47.592 69.9294 35.5 69.9294C23.4606 69.9294 12.8644 63.7499 6.71044 54.3895C9.26458 49.4398 13.8811 44.7639 18.7466 41.3258C21.1792 39.607 23.6732 38.198 26.0017 37.2189C28.3308 36.2395 30.4922 35.6911 32.26 35.6911C33.1443 35.6911 33.6356 35.9006 33.8548 36.2568C34.0752 36.6147 34.0311 37.136 33.8034 37.786C33.5764 38.4338 33.171 39.1983 32.6855 40.034C32.4428 40.4516 32.1805 40.8864 31.9109 41.3329L31.8817 41.3812C31.6215 41.812 31.3544 42.2541 31.0928 42.7005C30.0077 44.5522 29.003 46.4987 28.8887 48.1585C28.8315 48.99 28.9975 49.752 29.4904 50.394C29.983 51.0355 30.7988 51.5529 32.0333 51.9021C34.3906 52.5688 37.4161 52.002 40.6475 50.7271C43.8802 49.4518 47.3251 47.4655 50.5247 45.285C55.0542 42.1981 58.6806 40.4312 60.7127 40.052C61.2206 39.9572 61.6251 39.9499 61.9179 40.0277C62.2087 40.105 62.3868 40.2652 62.4516 40.5073C62.5173 40.753 62.4683 41.0903 62.285 41.5242C62.1021 41.9571 61.7874 42.4815 61.329 43.0986C59.7253 45.258 58.7585 47.035 58.3005 48.4866C57.8424 49.9383 57.8924 51.0678 58.3273 51.9282C58.7622 52.7886 59.5784 53.3731 60.6384 53.7424C61.6842 54.1068 62.9702 54.2627 64.3699 54.2668ZM64.4157 54.1963C63.0024 54.1955 61.7085 54.0405 60.6616 53.6758C59.6122 53.3102 58.8142 52.7351 58.3903 51.8964C57.9664 51.0578 57.9131 49.9487 58.3677 48.5078C58.8224 47.0667 59.7843 45.2969 61.3857 43.1407C61.8458 42.5211 62.164 41.9917 62.35 41.5516C62.5355 41.1125 62.5915 40.7574 62.5197 40.4891C62.4471 40.2173 62.2455 40.0418 61.936 39.9596C61.6284 39.8778 61.2119 39.8871 60.6998 39.9826C58.6521 40.3647 55.0152 42.1393 50.485 45.2267C47.5756 47.2094 44.4651 49.0302 41.4976 50.3009C41.5252 48.5041 41.8766 45.0213 42.74 41.7825C43.1757 40.1477 43.7415 38.5768 44.4609 37.3166C45.1806 36.0557 46.0516 35.1106 47.0955 34.7198C49.1978 33.9328 50.8058 34.071 52.4524 34.2347L52.564 34.2459C54.1764 34.4066 55.8371 34.5722 58.0344 33.8944C59.8807 33.3248 61.218 31.4475 62.1534 29.4383C63.0898 27.4269 63.6283 25.2726 63.8718 24.1332C63.8924 24.0367 63.8384 23.9635 63.7665 23.938C63.6951 23.9126 63.6058 23.9338 63.5563 24.018C62.7589 25.3725 61.7773 26.6778 60.4992 27.4765C59.2231 28.274 57.6486 28.5682 55.6594 27.8957C53.4816 27.1594 51.174 26.5799 49.2178 26.6621C48.2393 26.7032 47.3468 26.91 46.602 27.3472C46.0106 27.6944 45.5137 28.1861 45.1413 28.8531C45.3363 28.1109 45.3185 27.4093 45.1312 26.747C44.8962 25.9159 44.3951 25.149 43.7173 24.4421C42.3622 23.0289 40.2954 21.8502 38.2139 20.8743C36.3126 19.983 35.3798 18.681 35.0106 17.2222C34.6408 15.7611 34.8356 14.1395 35.1976 12.61C35.22 12.515 35.1703 12.4378 35.1012 12.4067C35.0316 12.3754 34.942 12.3908 34.8901 12.4748C34.2772 13.4658 33.175 15.3934 32.4588 17.4934C31.7434 19.591 31.4094 21.8716 32.3479 23.5605C33.4648 25.5705 34.7781 26.6004 36.0533 27.6003L36.1416 27.6695C37.4434 28.6909 38.6997 29.704 39.6725 31.727C40.1554 32.7313 40.112 34.0276 39.7457 35.4409C39.3796 36.8533 38.6926 38.377 37.8958 39.8317C36.3023 42.7412 34.2729 45.3694 33.5069 46.2711C32.7424 47.1711 31.6667 48.06 30.7809 48.7247C30.3382 49.0568 29.9433 49.3326 29.6592 49.5254C29.5172 49.6217 29.4028 49.6973 29.324 49.7488C29.2846 49.7745 29.254 49.7942 29.2334 49.8075C29.2294 49.8101 29.2258 49.8124 29.2225 49.8145C28.9935 49.315 28.9181 48.7591 28.9591 48.1633C29.0721 46.5225 30.0675 44.5897 31.1537 42.7362C31.4149 42.2904 31.6812 41.8496 31.9413 41.4189L31.9713 41.3693C32.2409 40.923 32.5035 40.4876 32.7465 40.0694C33.2322 39.2335 33.6406 38.4639 33.87 37.8093C34.0986 37.1568 34.1534 36.6072 33.9149 36.2198C33.6753 35.8306 33.15 35.6205 32.26 35.6205C30.4791 35.6205 28.3079 36.1726 25.9744 37.1538C23.6404 38.1353 21.142 39.5469 18.7059 41.2682C13.8457 44.7025 9.23054 49.3719 6.66604 54.3218C3.12771 48.9124 1.07055 42.4464 1.07055 35.5C1.07055 16.4851 16.4851 1.07055 35.5 1.07055C54.5149 1.07055 69.9294 16.4851 69.9294 35.5C69.9294 42.3928 67.9039 48.8125 64.4157 54.1963ZM29.253 49.8787C29.3333 50.0427 29.4306 50.2003 29.5464 50.351C30.0267 50.9766 30.8272 51.4876 32.0525 51.8342C34.387 52.4944 37.3942 51.9347 40.6216 50.6615C40.8886 50.5562 41.157 50.446 41.4266 50.3313C41.4506 48.5384 41.8018 45.0281 42.6718 41.7643C43.1084 40.1265 43.6761 38.5491 44.3996 37.2816C45.1228 36.0147 46.0043 35.0529 47.0708 34.6537C49.1891 33.8607 50.811 34.0007 52.4593 34.1645L52.5692 34.1755C54.1813 34.3362 55.83 34.5006 58.0136 33.827C59.8292 33.2669 61.1553 31.4151 62.0894 29.4085C63.0226 27.4041 63.5598 25.2558 63.8028 24.1185C63.8154 24.0596 63.7844 24.0192 63.7429 24.0044C63.7008 23.9895 63.6482 24.001 63.6171 24.0538C62.8178 25.4115 61.8292 26.7286 60.5366 27.5363C59.2421 28.3453 57.6455 28.6416 55.6368 27.9625C53.4606 27.2268 51.1633 26.6509 49.2208 26.7326C48.2499 26.7734 47.3696 26.9784 46.6377 27.4081C45.9453 27.8146 45.3838 28.4233 45.0039 29.2884C44.9865 29.3357 44.9682 29.3831 44.9491 29.4307C44.9418 29.4487 44.9213 29.4575 44.9032 29.4502C44.8878 29.4441 44.8792 29.4282 44.8814 29.4125L44.8761 29.4104C44.8963 29.3601 44.9171 29.3107 44.9384 29.2621C45.2657 28.3716 45.2824 27.5411 45.0633 26.7662C44.8324 25.9495 44.3389 25.1923 43.6663 24.4909C42.3207 23.0875 40.2639 21.9133 38.184 20.9382C36.264 20.0381 35.3167 18.7193 34.9422 17.2395C34.5682 15.7619 34.7661 14.1269 35.1289 12.5938C35.143 12.5341 35.113 12.4894 35.0723 12.4711C35.032 12.453 34.9818 12.4607 34.9501 12.5119C34.3384 13.501 33.2393 15.4235 32.5256 17.5161C31.8112 19.611 31.4868 21.8655 32.4096 23.5262C33.5195 25.5237 34.8233 26.5461 36.0982 27.5458L36.1851 27.614C37.4883 28.6365 38.7559 29.658 39.7361 31.6965C40.2297 32.723 40.1819 34.0391 39.814 35.4586C39.4459 36.8789 38.7559 38.4083 37.9577 39.8656C36.3613 42.7804 34.3289 45.4125 33.5607 46.3168C32.791 47.2228 31.7103 48.1155 30.8232 48.7811C30.3794 49.1141 29.9837 49.3905 29.6988 49.5837C29.5564 49.6804 29.4417 49.7562 29.3625 49.8079C29.323 49.8337 29.2923 49.8535 29.2715 49.8669C29.264 49.8717 29.2578 49.8756 29.253 49.8787Z" fill="black"/>
<path d="M35.5 69.9294C47.592 69.9294 58.228 63.6958 64.3699 54.2668C62.9702 54.2627 61.6842 54.1068 60.6384 53.7424C59.5784 53.3731 58.7622 52.7886 58.3273 51.9282C57.8924 51.0678 57.8424 49.9383 58.3005 48.4866C58.7585 47.035 59.7253 45.258 61.329 43.0986C61.7874 42.4815 62.1021 41.9571 62.285 41.5242C62.4683 41.0903 62.5173 40.753 62.4516 40.5073C62.3868 40.2652 62.2087 40.105 61.9179 40.0277C61.6251 39.9499 61.2206 39.9572 60.7127 40.052C58.6806 40.4312 55.0542 42.1981 50.5247 45.285C47.3251 47.4655 43.8802 49.4518 40.6475 50.7271C37.4161 52.002 34.3906 52.5688 32.0333 51.9021C30.7988 51.5529 29.983 51.0355 29.4904 50.394C28.9975 49.752 28.8315 48.99 28.8887 48.1585C29.003 46.4987 30.0077 44.5522 31.0928 42.7005C31.3544 42.2541 31.6215 41.812 31.8817 41.3812L31.9109 41.3329C32.1805 40.8864 32.4428 40.4516 32.6855 40.034C33.171 39.1983 33.5764 38.4338 33.8034 37.786C34.0311 37.136 34.0752 36.6147 33.8548 36.2568C33.6356 35.9006 33.1443 35.6911 32.26 35.6911C30.4922 35.6911 28.3308 36.2395 26.0017 37.2189C23.6732 38.198 21.1792 39.607 18.7466 41.3258C13.8811 44.7639 9.26458 49.4398 6.71044 54.3895C12.8644 63.7499 23.4606 69.9294 35.5 69.9294Z" fill="black"/>
<path d="M29.253 49.8787C29.3333 50.0427 29.4306 50.2003 29.5464 50.351C30.0267 50.9766 30.8272 51.4876 32.0525 51.8342C34.387 52.4944 37.3942 51.9347 40.6216 50.6615C40.8886 50.5562 41.157 50.446 41.4266 50.3313C41.4506 48.5384 41.8018 45.0281 42.6718 41.7643C43.1084 40.1265 43.6761 38.5491 44.3996 37.2816C45.1228 36.0147 46.0043 35.0529 47.0708 34.6537C49.1891 33.8607 50.811 34.0007 52.4593 34.1645L52.5692 34.1755C54.1813 34.3362 55.83 34.5006 58.0136 33.827C59.8292 33.2669 61.1553 31.4151 62.0894 29.4085C63.0226 27.4041 63.5598 25.2558 63.8028 24.1185C63.8154 24.0596 63.7844 24.0192 63.7429 24.0044C63.7008 23.9895 63.6482 24.001 63.6171 24.0538C62.8178 25.4115 61.8292 26.7286 60.5366 27.5363C59.2421 28.3453 57.6455 28.6416 55.6368 27.9625C53.4606 27.2268 51.1633 26.6509 49.2208 26.7326C48.2499 26.7734 47.3696 26.9784 46.6377 27.4081C45.9453 27.8146 45.3838 28.4233 45.0039 29.2884C44.9865 29.3357 44.9682 29.3831 44.9491 29.4307C44.9418 29.4487 44.9213 29.4575 44.9032 29.4502C44.8878 29.4441 44.8792 29.4282 44.8814 29.4125L44.8761 29.4104C44.8963 29.3601 44.9171 29.3107 44.9384 29.2621C45.2657 28.3716 45.2824 27.5411 45.0633 26.7662C44.8324 25.9495 44.3389 25.1923 43.6663 24.4909C42.3207 23.0875 40.2639 21.9133 38.184 20.9382C36.264 20.0381 35.3167 18.7193 34.9422 17.2395C34.5682 15.7619 34.7661 14.1269 35.1289 12.5938C35.143 12.5341 35.113 12.4894 35.0723 12.4711C35.032 12.453 34.9818 12.4607 34.9501 12.5119C34.3384 13.501 33.2393 15.4235 32.5256 17.5161C31.8112 19.611 31.4868 21.8655 32.4096 23.5262C33.5195 25.5237 34.8233 26.5461 36.0982 27.5458L36.1851 27.614C37.4883 28.6365 38.7559 29.658 39.7361 31.6965C40.2297 32.723 40.1819 34.0391 39.814 35.4586C39.4459 36.8789 38.7559 38.4083 37.9577 39.8656C36.3613 42.7804 34.3289 45.4125 33.5607 46.3168C32.791 47.2228 31.7103 48.1155 30.8232 48.7811C30.3794 49.1141 29.9837 49.3905 29.6988 49.5837C29.5564 49.6804 29.4417 49.7562 29.3625 49.8079C29.323 49.8337 29.2923 49.8535 29.2715 49.8669L29.253 49.8787Z" fill="black"/>
<path d="M29.253 49.8787C29.3333 50.0427 29.4306 50.2003 29.5464 50.351C30.0267 50.9766 30.8272 51.4876 32.0525 51.8342C34.387 52.4944 37.3942 51.9348 40.6216 50.6615C40.8886 50.5562 41.157 50.446 41.4266 50.3313C41.4506 48.5384 41.8018 45.0281 42.6718 41.7643C43.1084 40.1265 43.6761 38.5491 44.3996 37.2816C45.1228 36.0147 46.0043 35.0529 47.0708 34.6537C49.1891 33.8607 50.811 34.0007 52.4593 34.1645L52.5692 34.1755C54.1813 34.3362 55.83 34.5006 58.0136 33.827C59.8292 33.2669 61.1553 31.4151 62.0894 29.4085C63.0226 27.4041 63.5598 25.2558 63.8028 24.1185C63.8154 24.0596 63.7844 24.0192 63.7429 24.0044C63.7008 23.9895 63.6482 24.001 63.6171 24.0538C62.8178 25.4115 61.8292 26.7286 60.5366 27.5363C59.2421 28.3453 57.6455 28.6416 55.6368 27.9625C53.4606 27.2268 51.1633 26.6509 49.2208 26.7326C48.2499 26.7734 47.3696 26.9784 46.6377 27.4081C45.9453 27.8146 45.3838 28.4233 45.0039 29.2884C44.9865 29.3357 44.9682 29.3831 44.9491 29.4307C44.9418 29.4487 44.9213 29.4575 44.9032 29.4502C44.8878 29.4441 44.8792 29.4282 44.8814 29.4125L44.8761 29.4104C44.8963 29.3601 44.9171 29.3107 44.9384 29.2621C45.2657 28.3716 45.2824 27.5411 45.0633 26.7662C44.8324 25.9495 44.3389 25.1923 43.6663 24.4909C42.3207 23.0875 40.2639 21.9133 38.184 20.9382C36.2641 20.0381 35.3167 18.7193 34.9422 17.2395C34.5682 15.7619 34.7661 14.1269 35.1289 12.5938C35.143 12.5341 35.113 12.4894 35.0723 12.4711C35.032 12.453 34.9818 12.4607 34.9501 12.5119C34.3384 13.501 33.2393 15.4235 32.5256 17.5161C31.8112 19.611 31.4868 21.8655 32.4096 23.5262C33.5195 25.5237 34.8233 26.5461 36.0982 27.5458L36.1851 27.614C37.4883 28.6365 38.7559 29.658 39.7361 31.6965C40.2297 32.723 40.1819 34.0391 39.814 35.4586C39.4459 36.8789 38.7559 38.4083 37.9577 39.8656C36.3613 42.7804 34.3289 45.4125 33.5607 46.3168C32.791 47.2228 31.7103 48.1155 30.8232 48.7811C30.3794 49.1141 29.9837 49.3905 29.6988 49.5837C29.5564 49.6804 29.4417 49.7562 29.3625 49.8079C29.323 49.8337 29.2923 49.8535 29.2715 49.8669M29.253 49.8787C29.2578 49.8756 29.264 49.8717 29.2715 49.8669M29.253 49.8787L29.2715 49.8669M35.5 69.9294C47.592 69.9294 58.228 63.6958 64.3699 54.2668C62.9702 54.2627 61.6842 54.1068 60.6384 53.7424C59.5784 53.3731 58.7622 52.7886 58.3273 51.9282C57.8924 51.0678 57.8424 49.9383 58.3005 48.4866C58.7585 47.035 59.7253 45.258 61.329 43.0986C61.7874 42.4815 62.1021 41.9571 62.285 41.5242C62.4683 41.0903 62.5173 40.753 62.4516 40.5073C62.3868 40.2652 62.2087 40.105 61.9179 40.0277C61.6251 39.9499 61.2206 39.9572 60.7127 40.052C58.6806 40.4312 55.0542 42.1981 50.5247 45.285C47.3251 47.4655 43.8802 49.4518 40.6475 50.7271C37.4161 52.002 34.3906 52.5688 32.0333 51.9021C30.7988 51.5529 29.983 51.0355 29.4904 50.394C28.9975 49.752 28.8315 48.99 28.8887 48.1585C29.003 46.4987 30.0077 44.5522 31.0928 42.7005C31.3544 42.2541 31.6215 41.812 31.8817 41.3812L31.9109 41.3329C32.1805 40.8864 32.4428 40.4516 32.6855 40.034C33.171 39.1983 33.5764 38.4338 33.8034 37.786C34.0311 37.136 34.0752 36.6147 33.8548 36.2568C33.6356 35.9006 33.1443 35.6911 32.26 35.6911C30.4922 35.6911 28.3308 36.2395 26.0017 37.2189C23.6732 38.198 21.1792 39.607 18.7466 41.3258C13.8811 44.7639 9.26458 49.4398 6.71044 54.3895C12.8644 63.7499 23.4606 69.9294 35.5 69.9294ZM60.6616 53.6758C61.7085 54.0405 63.0024 54.1955 64.4157 54.1963C67.9039 48.8125 69.9294 42.3928 69.9294 35.5C69.9294 16.4851 54.5149 1.07055 35.5 1.07055C16.4851 1.07055 1.07055 16.4851 1.07055 35.5C1.07055 42.4464 3.12771 48.9124 6.66604 54.3218C9.23054 49.3719 13.8457 44.7025 18.7059 41.2682C21.142 39.5469 23.6404 38.1353 25.9744 37.1538C28.3079 36.1726 30.4791 35.6205 32.26 35.6205C33.15 35.6205 33.6753 35.8306 33.9149 36.2198C34.1534 36.6072 34.0986 37.1568 33.87 37.8093C33.6406 38.4639 33.2322 39.2335 32.7465 40.0694C32.5035 40.4876 32.2409 40.923 31.9713 41.3693L31.9413 41.4189C31.6812 41.8496 31.4149 42.2904 31.1537 42.7362C30.0675 44.5897 29.0721 46.5225 28.9591 48.1633C28.9181 48.7591 28.9935 49.315 29.2225 49.8145C29.2258 49.8124 29.2294 49.8101 29.2334 49.8075C29.254 49.7942 29.2846 49.7745 29.324 49.7488C29.4028 49.6973 29.5172 49.6217 29.6592 49.5254C29.9433 49.3326 30.3382 49.0568 30.7809 48.7247C31.6667 48.06 32.7424 47.1711 33.5069 46.2711C34.2729 45.3694 36.3023 42.7412 37.8958 39.8317C38.6926 38.377 39.3796 36.8533 39.7457 35.4409C40.112 34.0276 40.1554 32.7313 39.6725 31.727C38.6997 29.704 37.4434 28.6909 36.1416 27.6695L36.0533 27.6003C34.7782 26.6004 33.4648 25.5705 32.3479 23.5605C31.4094 21.8716 31.7434 19.591 32.4588 17.4934C33.175 15.3934 34.2772 13.4658 34.8901 12.4748C34.942 12.3908 35.0316 12.3754 35.1012 12.4067C35.1703 12.4378 35.22 12.515 35.1976 12.61C34.8356 14.1395 34.6408 15.7611 35.0106 17.2222C35.3798 18.681 36.3126 19.983 38.2139 20.8743C40.2954 21.8502 42.3622 23.0289 43.7173 24.4421C44.3951 25.149 44.8962 25.9159 45.1312 26.747C45.3185 27.4093 45.3363 28.1109 45.1413 28.8531C45.5137 28.1861 46.0106 27.6944 46.602 27.3472C47.3468 26.91 48.2393 26.7032 49.2178 26.6621C51.174 26.5799 53.4816 27.1594 55.6594 27.8957C57.6486 28.5682 59.2231 28.274 60.4992 27.4765C61.7773 26.6778 62.7589 25.3725 63.5563 24.018C63.6058 23.9338 63.6951 23.9126 63.7665 23.938C63.8384 23.9635 63.8924 24.0367 63.8718 24.1332C63.6283 25.2726 63.0898 27.4269 62.1534 29.4383C61.218 31.4476 59.8807 33.3248 58.0344 33.8944C55.8371 34.5722 54.1764 34.4066 52.564 34.2459L52.4524 34.2347C50.8058 34.0711 49.1978 33.9328 47.0955 34.7198C46.0516 35.1106 45.1806 36.0557 44.4609 37.3166C43.7415 38.5768 43.1757 40.1477 42.74 41.7825C41.8766 45.0213 41.5252 48.5041 41.4976 50.3009C44.4651 49.0302 47.5756 47.2094 50.485 45.2267C55.0152 42.1393 58.6521 40.3647 60.6998 39.9826C61.2119 39.8871 61.6284 39.8778 61.936 39.9596C62.2455 40.0418 62.4471 40.2172 62.5197 40.4891C62.5915 40.7574 62.5355 41.1125 62.35 41.5516C62.164 41.9917 61.8458 42.5211 61.3857 43.1407C59.7843 45.2969 58.8224 47.0667 58.3677 48.5078C57.9131 49.9487 57.9664 51.0578 58.3903 51.8964C58.8142 52.7351 59.6122 53.3102 60.6616 53.6758ZM35.5 70C54.5538 70 70 54.5538 70 35.5C70 16.4462 54.5538 1 35.5 1C16.4462 1 1 16.4462 1 35.5C1 54.5538 16.4462 70 35.5 70Z" stroke="black" stroke-linecap="round"/>
</svg>
