<svg width="71" height="71" viewBox="0 0 71 71" fill="none" xmlns="http://www.w3.org/2000/svg">
<path d="M34.8981 0.0972552C34.8488 0.0750773 34.7872 0.0845007 34.7484 0.1473C33.9985 1.35971 32.6513 3.7162 31.7765 6.28126C30.9008 8.84906 30.5032 11.6125 31.6343 13.6482C32.9948 16.0966 34.593 17.3498 36.1557 18.5753L36.2622 18.6588C37.8597 19.9122 39.4133 21.1642 40.6149 23.6629C41.2199 24.9212 41.1613 26.5344 40.7103 28.2743C40.2591 30.0153 39.4134 31.89 38.435 33.6764C36.4782 37.2491 33.9869 40.4755 33.0453 41.5839C32.1019 42.6945 30.7772 43.7888 29.6898 44.6046C29.1458 45.0127 28.6607 45.3516 28.3116 45.5884C28.137 45.7068 27.9964 45.7998 27.8994 45.8631C27.8509 45.8948 27.8133 45.9191 27.7878 45.9354C27.7786 45.9413 27.7711 45.9462 27.7651 45.95C27.8635 46.1509 27.9828 46.3441 28.1247 46.5289C28.7135 47.2957 29.6947 47.9221 31.1967 48.3469C34.0581 49.1562 37.7442 48.4702 41.7003 46.9095C42.0275 46.7804 42.3565 46.6454 42.687 46.5047C42.7164 44.3071 43.1469 40.0043 44.2133 36.0037C44.7485 33.9961 45.4443 32.0626 46.3312 30.509C47.2177 28.9561 48.2982 27.7771 49.6054 27.2878C52.202 26.3158 54.19 26.4873 56.2105 26.6882L56.3452 26.7016C58.3212 26.8986 60.3421 27.1001 63.0187 26.2744C65.2441 25.5879 66.8696 23.318 68.0147 20.8584C69.1585 18.4015 69.817 15.7682 70.1148 14.3741C70.1303 14.3019 70.0923 14.2525 70.0414 14.2343C69.9898 14.216 69.9253 14.2301 69.8872 14.2949C68.9075 15.9591 67.6957 17.5735 66.1113 18.5636C64.5245 19.5552 62.5675 19.9184 60.1053 19.086C57.4378 18.1842 54.6219 17.4783 52.2408 17.5784C51.0507 17.6284 49.9717 17.8797 49.0746 18.4064C48.2258 18.9047 47.5376 19.6508 47.0719 20.7113C47.0505 20.7692 47.0282 20.8273 47.0047 20.8856C46.9958 20.9078 46.9707 20.9185 46.9485 20.9096C46.9296 20.902 46.919 20.8826 46.9218 20.8633L46.9153 20.8607C46.94 20.7991 46.9655 20.7386 46.9916 20.6789C47.3928 19.5875 47.4133 18.5695 47.1448 17.6196C46.8617 16.6185 46.2568 15.6904 45.4324 14.8306C43.7829 13.1105 41.2618 11.6711 38.7123 10.4759C36.359 9.37264 35.1977 7.75608 34.7387 5.94213C34.2803 4.13094 34.5229 2.12692 34.9675 0.247651C34.9848 0.174542 34.948 0.119693 34.8981 0.0972552Z" fill="black"/>
<path fill-rule="evenodd" clip-rule="evenodd" d="M34.7484 0.1473C34.7872 0.0845007 34.8488 0.0750773 34.8981 0.0972552C34.948 0.119693 34.9848 0.174542 34.9675 0.247651C34.5229 2.12692 34.2803 4.13094 34.7387 5.94213C35.1977 7.75608 36.359 9.37264 38.7123 10.4759C41.2618 11.6711 43.7829 13.1105 45.4324 14.8306C46.2568 15.6904 46.8617 16.6185 47.1448 17.6196C47.4133 18.5695 47.3928 19.5875 46.9916 20.6789C46.9655 20.7386 46.94 20.7991 46.9153 20.8607L46.9218 20.8633C46.919 20.8826 46.9296 20.902 46.9485 20.9096C46.9707 20.9185 46.9958 20.9078 47.0047 20.8856C47.0282 20.8273 47.0505 20.7692 47.0719 20.7113C47.5376 19.6508 48.2258 18.9047 49.0746 18.4064C49.9717 17.8797 51.0507 17.6284 52.2408 17.5784C54.6219 17.4783 57.4378 18.1842 60.1053 19.086C62.5675 19.9184 64.5245 19.5552 66.1113 18.5636C67.6957 17.5735 68.9075 15.9591 69.8872 14.2949C69.9253 14.2301 69.9898 14.216 70.0414 14.2343C70.0923 14.2525 70.1303 14.3019 70.1148 14.3741C69.817 15.7682 69.1585 18.4015 68.0147 20.8584C66.8696 23.318 65.2441 25.5879 63.0187 26.2744C60.3421 27.1001 58.3212 26.8986 56.3452 26.7016L56.2105 26.6882C54.19 26.4873 52.202 26.3158 49.6054 27.2878C48.2982 27.7771 47.2177 28.9561 46.3312 30.509C45.4443 32.0626 44.7485 33.9961 44.2133 36.0037C43.1469 40.0043 42.7164 44.3071 42.687 46.5047C42.3565 46.6454 42.0275 46.7804 41.7003 46.9095C37.7442 48.4702 34.0581 49.1562 31.1967 48.3469C29.6947 47.9221 28.7135 47.2957 28.1247 46.5289C27.9828 46.3441 27.8635 46.1509 27.7651 45.95C27.7711 45.9462 27.7786 45.9413 27.7878 45.9354C27.8133 45.9191 27.8509 45.8948 27.8994 45.8631C27.9964 45.7998 28.137 45.7068 28.3116 45.5884C28.6607 45.3516 29.1458 45.0127 29.6898 44.6046C30.7772 43.7888 32.1019 42.6945 33.0453 41.5839C33.9869 40.4755 36.4782 37.2491 38.435 33.6764C39.4134 31.89 40.2591 30.0153 40.7103 28.2743C41.1613 26.5344 41.2199 24.9212 40.6149 23.6629C39.4133 21.1642 37.8597 19.9122 36.2622 18.6588L36.1557 18.5753C34.593 17.3498 32.9948 16.0966 31.6343 13.6482C30.5032 11.6125 30.9008 8.84906 31.7765 6.28126C32.6513 3.7162 33.9985 1.35971 34.7484 0.1473Z" fill="black"/>
<path fill-rule="evenodd" clip-rule="evenodd" d="M27.7277 45.8712L27.7411 45.8627C27.7664 45.8464 27.8038 45.8223 27.8521 45.7907C27.9487 45.7276 28.0889 45.635 28.263 45.5168C28.6113 45.2806 29.0953 44.9425 29.6379 44.5354C30.7237 43.7207 32.0423 42.6311 32.9794 41.5279C33.9183 40.4227 36.4058 37.2012 38.3591 33.6348C39.3358 31.8516 40.1779 29.9839 40.6266 28.2526C41.0756 26.5203 41.1289 24.9314 40.5369 23.7004C39.3445 21.2207 37.8046 19.9789 36.2088 18.7268L36.1006 18.642C34.5376 17.4163 32.9278 16.154 31.5587 13.6902C30.4084 11.62 30.8178 8.82461 31.6947 6.25334C32.5725 3.67933 33.9236 1.31648 34.6748 0.101813C34.7385 -0.00111988 34.8483 -0.0199864 34.9336 0.0183866C35.0183 0.0564995 35.0793 0.151042 35.0517 0.267564C34.6081 2.14238 34.3693 4.13002 34.8225 5.92092C35.2751 7.70906 36.4185 9.30504 38.749 10.3976C41.3005 11.5937 43.8338 13.0385 45.4948 14.7708C46.3257 15.6373 46.9399 16.5774 47.228 17.5961C47.4575 18.4079 47.4793 19.2678 47.2403 20.1776C47.6968 19.3601 48.3059 18.7573 49.0308 18.3318C49.9437 17.7958 51.0378 17.5424 52.2372 17.492C54.635 17.3912 57.4635 18.1016 60.133 19.0041C62.5713 19.8284 64.5012 19.4678 66.0654 18.4903C67.6321 17.5113 68.8353 15.9113 69.8126 14.251C69.8734 14.1478 69.9828 14.1217 70.0703 14.1529C70.1585 14.1842 70.2247 14.2738 70.1994 14.3922C69.901 15.7889 69.2409 18.4295 68.0931 20.8949C66.9465 23.3578 65.3073 25.6589 63.0442 26.357C60.3508 27.1879 58.3152 26.985 56.3388 26.7879L56.2019 26.7742C54.1836 26.5736 52.2126 26.4041 49.6357 27.3688C48.3561 27.8478 47.2886 29.0064 46.4063 30.5518C45.5245 32.0965 44.831 34.0221 44.2969 36.026C43.2386 39.9959 42.8078 44.265 42.7741 46.4675C46.4114 44.9099 50.2243 42.678 53.7904 40.2477C59.3434 36.4633 63.8013 34.2881 66.3113 33.8198C66.939 33.7027 67.4495 33.6913 67.8266 33.7915C68.2059 33.8923 68.453 34.1074 68.5421 34.4406C68.63 34.7694 68.5615 35.2047 68.334 35.743C68.1061 36.2824 67.716 36.9313 67.152 37.6908C65.193 40.3286 64.0147 42.4946 63.456 44.2592C62.8974 46.0235 62.9593 47.3826 63.4743 48.4111C63.9893 49.4397 64.9617 50.1461 66.2419 50.5964C67.5223 51.0467 69.1068 51.2393 70.8385 51.2423L71 51.2424C67.1734 57.165 61.9068 62.0933 55.7189 65.4741C49.5309 68.8549 42.5965 70.6364 35.5453 70.6568C28.494 70.6773 21.5494 68.9361 15.3419 65.5912C9.13446 62.2464 3.86086 57.4039 0 51.5036C3.13903 45.4204 8.86557 39.615 14.837 35.3956C17.823 33.2857 20.8855 31.5553 23.7463 30.3523C26.6067 29.1496 29.268 28.4728 31.451 28.4728C32.542 28.4728 33.1858 28.7304 33.4795 29.2074C33.7718 29.6823 33.7047 30.3559 33.4244 31.1558C33.1433 31.9582 32.6426 32.9015 32.0473 33.9261C31.7494 34.4388 31.4275 34.9724 31.0971 35.5195L31.0615 35.5785L31.0612 35.5789L31.0606 35.5799C30.7416 36.108 30.4152 36.6484 30.0949 37.195C28.7635 39.467 27.5434 41.836 27.4049 43.8473C27.3546 44.5775 27.4471 45.259 27.7277 45.8712ZM34.7484 0.1473C34.7872 0.0845007 34.8488 0.0750773 34.8981 0.0972552C34.948 0.119693 34.9848 0.174542 34.9675 0.247651C34.5229 2.12692 34.2803 4.13094 34.7387 5.94213C35.1977 7.75608 36.359 9.37264 38.7123 10.4759C41.2618 11.6711 43.7829 13.1105 45.4324 14.8306C46.2568 15.6904 46.8617 16.6185 47.1448 17.6196C47.4133 18.5695 47.3928 19.5875 46.9916 20.6789C46.9655 20.7386 46.94 20.7991 46.9153 20.8607L46.9218 20.8633C46.919 20.8826 46.9296 20.902 46.9485 20.9096C46.9707 20.9185 46.9958 20.9078 47.0047 20.8856C47.0282 20.8273 47.0505 20.7692 47.0719 20.7113C47.5376 19.6508 48.2258 18.9047 49.0746 18.4064C49.9717 17.8797 51.0507 17.6284 52.2408 17.5784C54.6219 17.4783 57.4378 18.1842 60.1053 19.086C62.5675 19.9184 64.5245 19.5552 66.1113 18.5636C67.6957 17.5735 68.9075 15.9591 69.8872 14.2949C69.9253 14.2301 69.9898 14.216 70.0414 14.2343C70.0923 14.2525 70.1303 14.3019 70.1148 14.3741C69.817 15.7682 69.1585 18.4015 68.0147 20.8584C66.8696 23.318 65.2441 25.5879 63.0187 26.2744C60.3421 27.1001 58.3212 26.8986 56.3452 26.7016L56.2105 26.6882C54.19 26.4873 52.202 26.3158 49.6054 27.2878C48.2982 27.7771 47.2177 28.9561 46.3312 30.509C45.4443 32.0626 44.7485 33.9961 44.2133 36.0037C43.1469 40.0043 42.7164 44.3071 42.687 46.5047C42.3565 46.6454 42.0275 46.7804 41.7003 46.9095C37.7442 48.4702 34.0581 49.1562 31.1967 48.3469C29.6947 47.9221 28.7135 47.2957 28.1247 46.5289C27.9828 46.3441 27.8635 46.1509 27.7651 45.95C27.7711 45.9462 27.7786 45.9413 27.7878 45.9354C27.8133 45.9191 27.8509 45.8948 27.8994 45.8631C27.9964 45.7998 28.137 45.7068 28.3116 45.5884C28.6607 45.3516 29.1458 45.0127 29.6898 44.6046C30.7772 43.7888 32.1019 42.6945 33.0453 41.5839C33.9869 40.4755 36.4782 37.2491 38.435 33.6764C39.4134 31.89 40.2591 30.0153 40.7103 28.2743C41.1613 26.5344 41.2199 24.9212 40.6149 23.6629C39.4133 21.1642 37.8597 19.9122 36.2622 18.6588L36.1557 18.5753C34.593 17.3498 32.9948 16.0966 31.6343 13.6482C30.5032 11.6125 30.9008 8.84906 31.7765 6.28126C32.6513 3.7162 33.9985 1.35971 34.7484 0.1473Z" fill="black"/>
</svg>
